<svg width="75" height="75" viewBox="0 0 75 75" fill="none" xmlns="http://www.w3.org/2000/svg">
<path d="M59.94 14.49C64.84 17.37 68.68 19.19 68.71 24.3C68.79 37.0267 68.8 45.4267 68.74 49.5C68.6866 53.4067 66.9766 56.37 63.61 58.39C52.7166 64.93 44.7566 69.3867 39.73 71.76C38.37 72.4 35.53 71.9 33.97 71.07C24.4566 66.01 16.6466 61.5634 10.54 57.73C7.07996 55.57 6.35996 52.3201 6.27996 48.1101C6.13329 39.2967 6.15663 31.4034 6.34996 24.43C6.43663 21.2167 7.86996 18.7834 10.65 17.13C16.5366 13.6234 22.4733 10.2134 28.46 6.90005C33.8 3.94005 36.79 1.62005 42.09 4.47005C48.11 7.70338 54.06 11.0434 59.94 14.49ZM37.04 17.37C37.1892 17.4552 37.3574 17.5 37.5276 17.5C37.6979 17.5 37.8643 17.4552 38.01 17.37L44.54 13.68C44.612 13.6394 44.6721 13.5803 44.7141 13.509C44.756 13.4377 44.7781 13.3568 44.7781 13.2748C44.7781 13.1929 44.756 13.1129 44.7141 13.0435C44.6721 12.974 44.612 12.9175 44.54 12.88L37.96 9.30005C37.8217 9.22675 37.667 9.18927 37.5099 9.19102C37.3528 9.19276 37.1981 9.23367 37.06 9.31005L30.53 12.93C30.0833 13.1834 30.0833 13.4367 30.53 13.69L37.04 17.37ZM16.3 21.68L36.97 33.58C37.35 33.8 37.73 33.8 38.11 33.58L58.61 21.73C58.6739 21.6931 58.7273 21.6401 58.7648 21.5765C58.8023 21.5129 58.8226 21.441 58.8236 21.3679C58.8246 21.2949 58.8063 21.2233 58.7706 21.1605C58.7348 21.0976 58.6829 21.0457 58.62 21.01L51.89 17.09C51.7624 17.0143 51.6175 16.9735 51.47 16.9717C51.3224 16.97 51.1775 17.0073 51.05 17.08L39.19 23.92C38.6818 24.2121 38.1053 24.3658 37.5176 24.3658C36.93 24.3658 36.3516 24.2121 35.84 23.92L24.08 17.14C23.7466 16.9467 23.4166 16.9434 23.09 17.13L16.3 21.02C15.92 21.24 15.92 21.46 16.3 21.68ZM33.99 39.1101L13.04 26.96C12.68 26.7534 12.5 26.8567 12.5 27.27V35.2401C12.4996 35.3738 12.5346 35.5052 12.6013 35.6211C12.668 35.737 12.7642 35.8332 12.88 35.9001L24.84 42.84C25.3446 43.1315 25.7636 43.551 26.055 44.0566C26.3464 44.5621 26.4999 45.1358 26.5 45.7201V59.2201C26.5 59.3811 26.5416 59.5389 26.6206 59.6776C26.6996 59.8162 26.8132 59.9309 26.95 60.01L33.76 63.9701C33.8397 64.0161 33.9303 64.0402 34.0224 64.0398C34.1145 64.0393 34.2049 64.0145 34.2842 63.9677C34.3635 63.9209 34.429 63.8539 34.474 63.7735C34.5189 63.693 34.5417 63.6021 34.54 63.51L34.41 39.82C34.41 39.5 34.27 39.2634 33.99 39.1101ZM40.6 39.9701L40.67 63.9001C40.67 64.2001 40.8 64.2734 41.06 64.1201L47.78 60.2201C47.9993 60.0922 48.1812 59.9085 48.3076 59.6874C48.4339 59.4663 48.5003 59.2155 48.5 58.96V45.53C48.5 45.016 48.6349 44.5109 48.891 44.0652C49.1472 43.6196 49.5158 43.2488 49.96 42.9901L62.13 35.87C62.3766 35.7234 62.5 35.5067 62.5 35.2201V27.49C62.5 26.9367 62.26 26.8 61.78 27.08L41.1 39.1C40.9481 39.1878 40.822 39.3143 40.7343 39.467C40.6465 39.6197 40.6002 39.7932 40.6 39.9701ZM12.56 51.4901C12.5606 51.5401 12.5737 51.5892 12.5982 51.6328C12.6226 51.6765 12.6576 51.7134 12.7 51.7401L19.85 56.09C19.8956 56.1164 19.9473 56.1302 20 56.1302C20.0527 56.1302 20.1044 56.1164 20.15 56.09C20.1957 56.0636 20.2335 56.0258 20.2598 55.9801C20.2862 55.9345 20.3 55.8827 20.3 55.8301L20.22 47.5401C20.22 47.4874 20.2061 47.4356 20.1798 47.3899C20.1535 47.3443 20.1156 47.3064 20.07 47.28L12.86 43.1C12.8143 43.0737 12.7626 43.0598 12.7099 43.0599C12.6572 43.0599 12.6055 43.0737 12.5599 43.1001C12.5143 43.1265 12.4764 43.1644 12.4501 43.21C12.4238 43.2556 12.4099 43.3074 12.41 43.3601L12.56 51.4901ZM54.64 55.9501C54.6399 55.9855 54.6488 56.0204 54.6659 56.0514C54.683 56.0825 54.7077 56.1088 54.7376 56.1277C54.7676 56.1467 54.8018 56.1578 54.8372 56.1599C54.8726 56.1621 54.9079 56.1552 54.94 56.14C62.33 52.33 62.56 52.2001 62.57 43.5801C62.5686 43.5092 62.5489 43.44 62.5128 43.379C62.4768 43.3181 62.4255 43.2675 62.3641 43.2323C62.3027 43.197 62.2331 43.1783 62.1623 43.1779C62.0915 43.1775 62.0218 43.1955 61.96 43.23L55.26 47.14C54.96 47.3134 54.8066 47.5734 54.8 47.92L54.64 55.9501Z" fill="#BFCDE0"/>
</svg>
